# xmcd
#
# Track frame offsets: 
#        150
#        16177
#        31196
#        41201
#        56004
#        70826
#        81931
#        99996
#        115008
#        125447
#        139131
#        154487
#
# Disc length: 2289 seconds
#
# Revision: 0
# Processed by: cddbd v1.5.2PL0 Copyright (c) Steve Scherf et al.
# Submitted via: ExactAudioCopyFreeDBPlugin 1.0
#
DISCID=9d08ef0c
DTITLE=Corb Lund - Counterfeit Blues
DYEAR=2014
DGENRE=Country
TTITLE0=Counterfeiters' Blues
TTITLE1=Good Copenhagen
TTITLE2=Big Butch Bass Bull Fiddle
TTITLE3=Hair in My Eyes Like a Highland Steer
TTITLE4=Little Foothills Heaven
TTITLE5=Five Dollar Bill
TTITLE6=Buckin' Horse Rider
TTITLE7=Hurtin' Albertan
TTITLE8=(Gonna) Shine Up My Boots
TTITLE9=Truck Got Stuck
TTITLE10=Roughest Neck Around
TTITLE11=Truth Comes Out
EXTD=
EXTT0=
EXTT1=
EXTT2=
EXTT3=
EXTT4=
EXTT5=
EXTT6=
EXTT7=
EXTT8=
EXTT9=
EXTT10=
EXTT11=
PLAYORDER=
